{"asset":{"version":"2.0","generator":"Atlas-Netic original traffic silhouettes"},"scene":0,"scenes":[{"nodes":[0]}],"nodes":[{"mesh":0}],"meshes":[{"primitives":[{"attributes":{"POSITION":0,"NORMAL":1,"COLOR_0":2},"material":0}]}],"materials":[{"doubleSided":true,"pbrMetallicRoughness":{"metallicFactor":0.15,"roughnessFactor":0.7}}],"buffers":[{"byteLength":12528,"uri":"data:application/octet-stream;base64,"}],"bufferViews":[{"buffer":0,"byteOffset":0,"byteLength":4176,"target":34962},{"buffer":0,"byteOffset":4176,"byteLength":4176,"target":34962},{"buffer":0,"byteOffset":8352,"byteLength":4176,"target":34962}],"accessors":[{"bufferView":0,"componentType":5126,"count":348,"type":"VEC3","min":[-25,-3,-26],"max":[25,8,27]},{"bufferView":1,"componentType":5126,"count":348,"type":"VEC3"},{"bufferView":2,"componentType":5126,"count":348,"type":"VEC3"}]}